<svg width="68" height="65" viewBox="0 0 68 65" fill="none" xmlns="http://www.w3.org/2000/svg">
<path fill-rule="evenodd" clip-rule="evenodd" d="M26.3669 50.2853C11.8049 50.2853 -2.28882e-05 39.0286 -2.28882e-05 25.1427C-2.28882e-05 11.2568 11.8049 0 26.3669 0C40.929 0 52.7338 11.2568 52.7338 25.1427C52.7338 31.1488 50.5253 36.663 46.8405 40.9872L66.4822 59.7169C67.5474 60.7327 67.5474 62.3795 66.4822 63.3953C65.417 64.411 63.69 64.411 62.6248 63.3953L42.9831 44.6655C38.4483 48.1793 32.6655 50.2853 26.3669 50.2853ZM26.3668 45.0834C37.916 45.0834 47.2785 36.1557 47.2785 25.1427C47.2785 14.1297 37.916 5.20197 26.3668 5.20197C14.8176 5.20197 5.45513 14.1297 5.45513 25.1427C5.45513 36.1557 14.8176 45.0834 26.3668 45.0834Z" fill="#F7761F"/>
</svg>
