<svg width="65" height="65" viewBox="0 0 65 65" fill="none" xmlns="http://www.w3.org/2000/svg">
<path fill-rule="evenodd" clip-rule="evenodd" d="M32.0786 2.91623C32.0786 1.30647 33.385 0 34.9948 0C51.1012 0 64.1571 13.056 64.1571 29.1623C64.1571 30.7721 62.8507 32.0786 61.2409 32.0786H58.1818C58.2751 33.038 58.3247 34.012 58.3247 34.9948C58.3247 51.1012 45.2687 64.1571 29.1623 64.1571C13.056 64.1571 0 51.1012 0 34.9948C0 18.8884 13.056 5.83247 29.1623 5.83247C30.1451 5.83247 31.1191 5.88204 32.0786 5.97536V2.91623ZM32.0786 11.8458C31.125 11.7262 30.151 11.6649 29.1624 11.6649C16.2784 11.6649 5.83248 22.1109 5.83248 34.9948C5.83248 47.8787 16.2784 58.3247 29.1624 58.3247C42.0463 58.3247 52.4922 47.8787 52.4922 34.9948C52.4922 34.0062 52.431 33.0322 52.3114 32.0786H34.9948C33.3851 32.0786 32.0786 30.7721 32.0786 29.1623V11.8458ZM37.911 6.01348V26.2463H58.1438C56.8286 15.6925 48.4648 7.3287 37.911 6.01348Z" fill="#F7761F"/>
</svg>
