<svg width="65" height="62" viewBox="0 0 65 62" fill="none" xmlns="http://www.w3.org/2000/svg">
<path fill-rule="evenodd" clip-rule="evenodd" d="M27.2327 3.01446C29.2127 -1.00482 34.9445 -1.00482 36.9244 3.01446L43.9311 17.2278L59.5463 19.5562C63.9492 20.2125 65.713 25.6148 62.5446 28.7427L51.2458 39.901L53.874 55.6C54.6141 60.0082 49.9843 63.3549 46.0326 61.2724L32.0786 53.9307L18.1246 61.2724C14.1728 63.3549 9.54307 60.0082 10.2832 55.6L12.9114 39.901L1.61256 28.7427C-1.55586 25.6148 0.207977 20.2125 4.61081 19.5562L20.2233 17.2278L27.2327 3.01446ZM32.0786 5.40204L23.8186 22.1517L5.40767 24.8988L18.7026 38.0289L15.6098 56.4911L32.0786 47.8232L48.5474 56.4911L45.4546 38.0289L58.7495 24.8988L40.3386 22.1517L32.0786 5.40204Z" fill="#F7761F"/>
</svg>
