<svg width="65" height="65" viewBox="0 0 65 65" fill="none" xmlns="http://www.w3.org/2000/svg">
<path fill-rule="evenodd" clip-rule="evenodd" d="M22.2082 0H55.1093C60.1063 0 64.1571 4.05084 64.1571 9.0478V41.9489C64.1571 46.9459 60.1063 50.9967 55.1093 50.9967H50.9967V55.5792C50.9967 60.3166 47.1563 64.157 42.4189 64.157H12.3379C5.52387 64.157 0 58.6331 0 51.8191V21.7381C0 17.0007 3.84041 13.1603 8.57779 13.1603H13.1604V9.0478C13.1604 4.05084 17.2113 0 22.2082 0ZM13.1604 18.0955H8.57779C6.56602 18.0955 4.93516 19.7263 4.93516 21.7381V51.8191C4.93516 55.9075 8.24949 59.2218 12.3379 59.2218H42.4189C44.4307 59.2218 46.0615 57.591 46.0615 55.5792V50.9967H22.2082C17.2113 50.9967 13.1604 46.9459 13.1604 41.9489V18.0955ZM22.2082 4.93534C19.9369 4.93534 18.0956 6.77663 18.0956 9.04798V41.9491C18.0956 44.2204 19.9369 46.0617 22.2082 46.0617H55.1093C57.3807 46.0617 59.222 44.2204 59.222 41.9491V9.04798C59.222 6.77663 57.3807 4.93534 55.1093 4.93534H22.2082ZM30.4335 16.4506H46.8841C48.2469 16.4506 49.3517 17.5554 49.3517 18.9182C49.3517 20.281 48.2469 21.3858 46.8841 21.3858H30.4335C29.0707 21.3858 27.966 20.281 27.966 18.9182C27.966 17.5554 29.0707 16.4506 30.4335 16.4506ZM46.8841 29.6109H30.4335C29.0707 29.6109 27.966 30.7157 27.966 32.0785C27.966 33.4413 29.0707 34.5461 30.4335 34.5461H46.8841C48.2469 34.5461 49.3517 33.4413 49.3517 32.0785C49.3517 30.7157 48.2469 29.6109 46.8841 29.6109Z" fill="#F7761F"/>
</svg>
