<svg width="166" height="72" viewBox="0 0 166 72" fill="none" xmlns="http://www.w3.org/2000/svg">
<path d="M29.2377 61.3221H36.6061V37.8855H29.2377V61.3221Z" fill="#4A5B67"/>
<path d="M109.026 61.2338H115.199V38.0967H109.026V61.2338Z" fill="#4A5B67"/>
<path d="M23.7741 29.0874H16.4333V41.5583H7.34065V29.0874H0V61.3284H7.34065V48.1483H16.4333V61.3284H23.7741V29.0874Z" fill="#4A5B67"/>
<path fill-rule="evenodd" clip-rule="evenodd" d="M36.6615 31.4646C36.6546 30.7208 36.4947 30.0674 36.1819 29.511C35.8622 28.9481 35.4242 28.51 34.8611 28.1905C34.305 27.8775 33.6517 27.7176 32.9079 27.7109C32.1779 27.7176 31.5314 27.8775 30.9683 28.1905C30.4123 28.51 29.9673 28.9481 29.6474 29.511C29.3277 30.0674 29.1608 30.7208 29.1539 31.4646C29.1608 32.1804 29.3208 32.813 29.6337 33.3692C29.9534 33.9254 30.3914 34.3634 30.9543 34.683C31.5105 35.0028 32.1639 35.1697 32.9079 35.1765C34.2604 35.1637 35.4572 34.5939 36.1609 33.411C36.4879 32.855 36.6546 32.2083 36.6615 31.4646Z" fill="#F7761F"/>
<path d="M55.8897 37.8462L55.556 40.3904H55.4726C54.3883 38.5135 52.5531 37.3875 50.0506 37.3875C44.7951 37.3875 40.5409 42.1839 40.5409 49.7331C40.5409 55.9061 43.7524 61.1197 49.3831 61.1197C51.5519 61.1197 53.5124 60.2021 54.6801 58.5338H54.7636V59.8268C54.7636 63.5389 52.8032 65.4574 49.5917 65.4574C47.2559 65.4574 45.1289 64.7901 43.7524 64.0811L42.4178 69.6701C44.378 70.6294 47.0892 71.13 49.842 71.13C60.6446 71.13 62.0209 64.1645 62.0209 58.2835V45.1034C62.0209 41.8919 62.1462 39.6814 62.2295 37.8462H55.8897ZM54.6801 51.6102C54.6801 54.5714 53.2204 55.6143 51.6355 55.6143C49.3414 55.6143 47.9234 53.2785 47.9234 49.6081C47.9234 45.7709 49.4248 43.1849 51.7189 43.1849C53.2621 43.1849 54.6801 44.4361 54.6801 47.0639V51.6102Z" fill="#F7761F"/>
<path d="M87.6719 47.5227C87.6719 41.0161 85.086 37.3875 80.3728 37.3875C78.4959 37.3875 76.2437 38.0548 74.4084 40.4321H74.3251V27.7109H66.9843V61.3284H74.3251V47.189C74.3251 43.8941 76.4939 43.4352 77.4115 43.4352C79.5804 43.4352 80.3311 45.3538 80.3311 47.9816V61.3284H87.6719V47.5227Z" fill="#F7761F"/>
<path d="M105.606 37.7212C105.189 37.6376 104.814 37.5959 104.23 37.5959C102.061 37.5959 99.5584 39.1392 98.4739 42.1423H98.3069L98.0568 38.0965H92.7598C92.8432 40.182 92.9266 42.4759 92.9266 45.3538V61.3284H99.0995V49.3162C99.0995 45.3538 101.227 43.4769 104.021 43.4769C104.647 43.4769 105.147 43.5186 105.606 43.6021V37.7212Z" fill="#4A5B67"/>
<path fill-rule="evenodd" clip-rule="evenodd" d="M115.263 32.0918C115.257 31.4735 115.124 30.9282 114.865 30.4562C114.598 29.9841 114.226 29.6181 113.747 29.3456C113.275 29.0796 112.717 28.9467 112.072 28.9402C111.453 28.9467 110.908 29.0796 110.436 29.3456C109.971 29.6181 109.598 29.9841 109.332 30.4562C109.06 30.9282 108.927 31.4735 108.92 32.0918C108.927 32.6968 109.06 33.2357 109.319 33.7077C109.585 34.18 109.951 34.552 110.423 34.8245C110.895 35.0974 111.44 35.2369 112.072 35.2436C112.69 35.2369 113.235 35.1105 113.714 34.8512C114.193 34.5921 114.572 34.2263 114.844 33.761C115.117 33.2889 115.257 32.7304 115.263 32.0918Z" fill="#F7761F"/>
<path d="M140.599 47.078C140.599 40.5991 137.305 37.6377 133.05 37.6377C129.672 37.6377 127.378 39.5565 126.335 41.2664H126.21L125.918 38.0966H120.579C120.663 40.1473 120.746 42.3578 120.746 45.0758V61.3284H126.919V47.5019C126.919 43.9775 129.213 42.6846 130.881 42.6846C133.509 42.6846 134.427 44.9368 134.427 47.773V61.3284H140.599V47.078Z" fill="#4A5B67"/>
<path d="M160.62 38.0966L160.369 40.8911H160.286C159.243 39.0559 157.366 37.6377 154.447 37.6377C149.316 37.6377 144.854 42.184 144.854 49.8585C144.854 56.1982 148.315 61.1615 153.821 61.1615C156.365 61.1615 158.451 60.0355 159.619 58.2003H159.702V59.9103C159.702 64.3732 157.408 66.3335 153.946 66.3335C151.485 66.3335 149.316 65.5828 147.94 64.8319L146.731 69.5452C148.566 70.5878 151.36 71.1301 154.071 71.1301C165.374 71.1301 165.792 62.7048 165.792 58.1586V45.0619C165.792 41.8226 165.875 39.7719 166 38.0966H160.62ZM159.619 51.645C159.619 55.5725 157.116 56.4901 155.698 56.4901C152.778 56.4901 151.068 53.7305 151.068 49.6778C151.068 45.3122 152.945 42.476 155.74 42.476C157.825 42.476 159.619 44.1861 159.619 47.1474V51.645Z" fill="#4A5B67"/>
<path fill-rule="evenodd" clip-rule="evenodd" d="M73.4858 0C92.3377 0 108.336 11.7946 113.985 28.1468C113.402 27.9045 112.76 27.7704 112.085 27.7704C110.481 27.7704 109.061 28.528 108.183 29.6927C102.496 14.4684 87.3878 3.57926 69.6439 3.57926C60.0077 3.57926 51.1491 6.79131 44.1536 12.1644C44.0245 11.985 43.8673 11.8276 43.6882 11.6983C51.3803 4.46136 61.8933 0 73.4858 0Z" fill="#4A5B67"/>
<path fill-rule="evenodd" clip-rule="evenodd" d="M35.2578 20.7971C36.7952 20.7971 38.0416 22.0761 38.0416 23.654C38.0416 25.2316 36.7952 26.5105 35.2578 26.5105C33.7204 26.5105 32.4743 25.2316 32.4743 23.654C32.4743 22.0761 33.7204 20.7971 35.2578 20.7971Z" fill="#F7761F"/>
<path fill-rule="evenodd" clip-rule="evenodd" d="M38.7837 15.6255C39.8087 15.6255 40.6394 16.4783 40.6394 17.5301C40.6394 18.582 39.8087 19.4347 38.7837 19.4347C37.7587 19.4347 36.928 18.582 36.928 17.5301C36.928 16.4783 37.7587 15.6255 38.7837 15.6255Z" fill="#F7761F"/>
<path fill-rule="evenodd" clip-rule="evenodd" d="M42.3097 12.1094C43.1296 12.1094 43.7943 12.7913 43.7943 13.633C43.7943 14.4741 43.1296 15.1564 42.3097 15.1564C41.4897 15.1564 40.8251 14.4741 40.8251 13.633C40.8251 12.7913 41.4897 12.1094 42.3097 12.1094Z" fill="#F7761F"/>
</svg>
