<svg width="20" height="20" viewBox="0 0 20 20" fill="none" xmlns="http://www.w3.org/2000/svg">
<path fill-rule="evenodd" clip-rule="evenodd" d="M10.1825 6.18349C10.2406 6.12529 10.3095 6.07911 10.3855 6.0476C10.4614 6.0161 10.5428 5.99988 10.625 5.99988C10.7072 5.99988 10.7886 6.0161 10.8646 6.0476C10.9405 6.07911 11.0095 6.12529 11.0675 6.18349L14.8175 9.93349C14.8757 9.99155 14.9219 10.0605 14.9534 10.1365C14.9849 10.2124 15.0011 10.2938 15.0011 10.376C15.0011 10.4582 14.9849 10.5396 14.9534 10.6155C14.9219 10.6915 14.8757 10.7604 14.8175 10.8185L11.0675 14.5685C10.9502 14.6859 10.791 14.7518 10.625 14.7518C10.459 14.7518 10.2999 14.6859 10.1825 14.5685C10.0652 14.4511 9.99923 14.292 9.99923 14.126C9.99923 13.96 10.0652 13.8009 10.1825 13.6835L13.4913 10.376L10.1825 7.06849C10.1243 7.01044 10.0781 6.94147 10.0466 6.86554C10.0151 6.78961 9.9989 6.7082 9.9989 6.62599C9.9989 6.54379 10.0151 6.46238 10.0466 6.38645C10.0781 6.31052 10.1243 6.24155 10.1825 6.18349Z" fill="white"/>
<path fill-rule="evenodd" clip-rule="evenodd" d="M5 10.376C5 10.2102 5.06585 10.0512 5.18306 9.93403C5.30027 9.81682 5.45924 9.75098 5.625 9.75098H13.75C13.9158 9.75098 14.0747 9.81682 14.1919 9.93403C14.3092 10.0512 14.375 10.2102 14.375 10.376C14.375 10.5417 14.3092 10.7007 14.1919 10.8179C14.0747 10.9351 13.9158 11.001 13.75 11.001H5.625C5.45924 11.001 5.30027 10.9351 5.18306 10.8179C5.06585 10.7007 5 10.5417 5 10.376Z" fill="white"/>
</svg>
