<svg width="23" height="25" viewBox="0 0 23 25" fill="none" xmlns="http://www.w3.org/2000/svg">
<path fill-rule="evenodd" clip-rule="evenodd" d="M10.5325 1.75295C11.7031 0.620658 13.2715 -0.00659128 14.9 0.00630199C16.5286 0.0191953 18.0869 0.671199 19.2393 1.82189C20.3918 2.97257 21.0462 4.52987 21.0616 6.15838C21.077 7.78688 20.4522 9.35628 19.3217 10.5286L19.3181 10.5323L11.3605 18.7159C11.3599 18.7166 11.3592 18.7172 11.3586 18.7179C11.0155 19.0732 10.6052 19.3567 10.1515 19.552C9.69701 19.7476 9.20808 19.8508 8.71326 19.8555C8.21844 19.8602 7.72765 19.7663 7.26952 19.5792C6.81139 19.3922 6.39509 19.1158 6.04492 18.7662C5.69475 18.4166 5.41771 18.0007 5.22998 17.5429C5.04225 17.085 4.94758 16.5944 4.9515 16.0995C4.95542 15.6047 5.05784 15.1156 5.2528 14.6608C5.44619 14.2097 5.7268 13.8012 6.07846 13.4588L14.2465 5.27818C14.7312 4.79269 15.5177 4.79208 16.0032 5.27682C16.4887 5.76156 16.4893 6.54808 16.0046 7.03357L7.82972 15.2211L7.81434 15.2362C7.69578 15.3509 7.60125 15.488 7.53627 15.6396C7.47128 15.7912 7.43714 15.9543 7.43583 16.1192C7.43453 16.2841 7.46608 16.4477 7.52866 16.6003C7.59124 16.7529 7.68358 16.8915 7.80031 17.0081C7.91703 17.1246 8.0558 17.2168 8.20851 17.2791C8.36122 17.3415 8.52482 17.3728 8.68976 17.3712C8.85469 17.3696 9.01767 17.3352 9.16917 17.27C9.32067 17.2048 9.45767 17.1101 9.57217 16.9913L9.57575 16.9876L17.5334 8.804C17.5339 8.80343 17.5345 8.80287 17.535 8.8023C18.2123 8.09911 18.5865 7.15819 18.5773 6.18188C18.5681 5.20478 18.1754 4.2704 17.4839 3.57999C16.7925 2.88958 15.8575 2.49837 14.8804 2.49064C13.9091 2.48295 12.9735 2.85476 12.2725 3.52645L4.31288 11.7096C3.14887 12.8755 2.49557 14.4559 2.49684 16.1033C2.49811 17.7507 3.15378 19.3302 4.31959 20.4942C5.4854 21.6582 7.06587 22.3114 8.71331 22.3102C10.3607 22.3089 11.9402 21.6532 13.1042 20.4874L20.8717 12.7253C21.357 12.2404 22.1435 12.2407 22.6284 12.7259C23.1134 13.2112 23.1131 13.9977 22.6278 14.4827L14.8623 22.2428C14.8622 22.243 14.8625 22.2426 14.8623 22.2428C13.2328 23.8746 11.0213 24.7928 8.71523 24.7946C6.40888 24.7964 4.19629 23.8819 2.5642 22.2523C0.93211 20.6227 0.0142102 18.4116 0.0124284 16.1052C0.0106488 13.8017 0.922901 11.5917 2.54874 9.96016L10.5057 1.77967C10.5145 1.77063 10.5235 1.76172 10.5325 1.75295Z" fill="white"/>
</svg>
